<svg width="400" height="252" xmlns="http://www.w3.org/2000/svg">
 <defs>
  <style>.cls-1{fill:#d42327;}.cls-2{fill:#fff;}</style>
 </defs>
 <title>ruby_v2</title>
 <g>
  <title>background</title>
  <rect fill="none" id="canvas_background" height="254" width="402" y="-1" x="-1"/>
 </g>
 <g>
  <title>Layer 1</title>
  <rect y="-7" stroke="null" id="svg_1" height="263" width="407" class="cls-1"/>
  <path id="svg_2" d="m200.9,187l-84.9,-90.08l30.92,-29.92l106.44,0l30.64,29.91l-83.1,90.09zm-77.13,-89.67l77.09,81.67l75.44,-81.61l-25.18,-24.39l-102,0l-25.35,24.33z" class="cls-2"/>
  <polygon id="svg_3" points="200.93502807617188,185.6699981689453 161.78500366210938,97.37999725341797 166.82498168945312,95.13999938964844 200.81497192382812,171.75999450683594 233.13497924804688,95.18000030517578 238.21499633789062,97.33999633789062 200.93502807617188,185.6699981689453 " class="cls-2"/>
  <rect id="svg_4" height="6" width="160" y="94" x="120" class="cls-2"/>
  <polygon id="svg_5" points="163.41000366210938,101.16648864746094 145.52999877929688,73.08649444580078 150.26998901367188,70.23649597167969 164.989990234375,93.04649353027344 199.87997436523438,68.45649719238281 234.79000854492188,93.05648803710938 249.75,70.22648620605469 254.47000122070312,73.10649108886719 236.3399658203125,101.156494140625 199.87997436523438,75.3864974975586 163.41000366210938,101.16648864746094 " class="cls-2"/>
 </g>
</svg>